{
 "cells": [
  {
   "cell_type": "code",
   "execution_count": 23,
   "id": "03928054-6401-4019-af53-9ecf8aca7f7e",
   "metadata": {},
   "outputs": [],
   "source": [
    "import pandas as pd\n",
    "import joblib\n",
    "import numpy as np\n",
    "from sklearn.impute import SimpleImputer\n",
    "\n",
    "#cicdataset = pd.read_csv('C:/Users/katsa/Documents/cicids2017.csv')\n",
    "cicdataset = pd.read_csv(\"C:/Users/katsa/OneDrive/Jupyter_files/shallow_models_online/cic_test_sample_binary.csv\")"
   ]
  },
  {
   "cell_type": "code",
   "execution_count": 24,
   "id": "4d6eebef-b96d-4782-b738-8cbd1023b120",
   "metadata": {},
   "outputs": [
    {
     "data": {
      "text/html": [
       "<div>\n",
       "<style scoped>\n",
       "    .dataframe tbody tr th:only-of-type {\n",
       "        vertical-align: middle;\n",
       "    }\n",
       "\n",
       "    .dataframe tbody tr th {\n",
       "        vertical-align: top;\n",
       "    }\n",
       "\n",
       "    .dataframe thead th {\n",
       "        text-align: right;\n",
       "    }\n",
       "</style>\n",
       "<table border=\"1\" class=\"dataframe\">\n",
       "  <thead>\n",
       "    <tr style=\"text-align: right;\">\n",
       "      <th></th>\n",
       "      <th>Destination Port</th>\n",
       "      <th>Flow Duration</th>\n",
       "      <th>Total Fwd Packets</th>\n",
       "      <th>Total Backward Packets</th>\n",
       "      <th>Total Length of Fwd Packets</th>\n",
       "      <th>Total Length of Bwd Packets</th>\n",
       "      <th>Fwd Packet Length Max</th>\n",
       "      <th>Fwd Packet Length Min</th>\n",
       "      <th>Fwd Packet Length Mean</th>\n",
       "      <th>Fwd Packet Length Std</th>\n",
       "      <th>...</th>\n",
       "      <th>min_seg_size_forward</th>\n",
       "      <th>Active Mean</th>\n",
       "      <th>Active Std</th>\n",
       "      <th>Active Max</th>\n",
       "      <th>Active Min</th>\n",
       "      <th>Idle Mean</th>\n",
       "      <th>Idle Std</th>\n",
       "      <th>Idle Max</th>\n",
       "      <th>Idle Min</th>\n",
       "      <th>Label</th>\n",
       "    </tr>\n",
       "  </thead>\n",
       "  <tbody>\n",
       "    <tr>\n",
       "      <th>0</th>\n",
       "      <td>53</td>\n",
       "      <td>24950</td>\n",
       "      <td>1</td>\n",
       "      <td>1</td>\n",
       "      <td>42</td>\n",
       "      <td>124</td>\n",
       "      <td>42</td>\n",
       "      <td>42</td>\n",
       "      <td>42.0</td>\n",
       "      <td>0.0</td>\n",
       "      <td>...</td>\n",
       "      <td>20</td>\n",
       "      <td>0.0</td>\n",
       "      <td>0.0</td>\n",
       "      <td>0</td>\n",
       "      <td>0</td>\n",
       "      <td>0.0</td>\n",
       "      <td>0.0</td>\n",
       "      <td>0</td>\n",
       "      <td>0</td>\n",
       "      <td>BENIGN</td>\n",
       "    </tr>\n",
       "    <tr>\n",
       "      <th>1</th>\n",
       "      <td>53</td>\n",
       "      <td>190</td>\n",
       "      <td>2</td>\n",
       "      <td>2</td>\n",
       "      <td>66</td>\n",
       "      <td>386</td>\n",
       "      <td>33</td>\n",
       "      <td>33</td>\n",
       "      <td>33.0</td>\n",
       "      <td>0.0</td>\n",
       "      <td>...</td>\n",
       "      <td>20</td>\n",
       "      <td>0.0</td>\n",
       "      <td>0.0</td>\n",
       "      <td>0</td>\n",
       "      <td>0</td>\n",
       "      <td>0.0</td>\n",
       "      <td>0.0</td>\n",
       "      <td>0</td>\n",
       "      <td>0</td>\n",
       "      <td>BENIGN</td>\n",
       "    </tr>\n",
       "    <tr>\n",
       "      <th>2</th>\n",
       "      <td>53</td>\n",
       "      <td>31423</td>\n",
       "      <td>2</td>\n",
       "      <td>2</td>\n",
       "      <td>60</td>\n",
       "      <td>320</td>\n",
       "      <td>30</td>\n",
       "      <td>30</td>\n",
       "      <td>30.0</td>\n",
       "      <td>0.0</td>\n",
       "      <td>...</td>\n",
       "      <td>32</td>\n",
       "      <td>0.0</td>\n",
       "      <td>0.0</td>\n",
       "      <td>0</td>\n",
       "      <td>0</td>\n",
       "      <td>0.0</td>\n",
       "      <td>0.0</td>\n",
       "      <td>0</td>\n",
       "      <td>0</td>\n",
       "      <td>BENIGN</td>\n",
       "    </tr>\n",
       "    <tr>\n",
       "      <th>3</th>\n",
       "      <td>60588</td>\n",
       "      <td>43</td>\n",
       "      <td>1</td>\n",
       "      <td>1</td>\n",
       "      <td>0</td>\n",
       "      <td>0</td>\n",
       "      <td>0</td>\n",
       "      <td>0</td>\n",
       "      <td>0.0</td>\n",
       "      <td>0.0</td>\n",
       "      <td>...</td>\n",
       "      <td>32</td>\n",
       "      <td>0.0</td>\n",
       "      <td>0.0</td>\n",
       "      <td>0</td>\n",
       "      <td>0</td>\n",
       "      <td>0.0</td>\n",
       "      <td>0.0</td>\n",
       "      <td>0</td>\n",
       "      <td>0</td>\n",
       "      <td>BENIGN</td>\n",
       "    </tr>\n",
       "    <tr>\n",
       "      <th>4</th>\n",
       "      <td>53</td>\n",
       "      <td>30803</td>\n",
       "      <td>2</td>\n",
       "      <td>2</td>\n",
       "      <td>74</td>\n",
       "      <td>230</td>\n",
       "      <td>37</td>\n",
       "      <td>37</td>\n",
       "      <td>37.0</td>\n",
       "      <td>0.0</td>\n",
       "      <td>...</td>\n",
       "      <td>32</td>\n",
       "      <td>0.0</td>\n",
       "      <td>0.0</td>\n",
       "      <td>0</td>\n",
       "      <td>0</td>\n",
       "      <td>0.0</td>\n",
       "      <td>0.0</td>\n",
       "      <td>0</td>\n",
       "      <td>0</td>\n",
       "      <td>BENIGN</td>\n",
       "    </tr>\n",
       "  </tbody>\n",
       "</table>\n",
       "<p>5 rows × 79 columns</p>\n",
       "</div>"
      ],
      "text/plain": [
       "   Destination Port  Flow Duration  Total Fwd Packets  Total Backward Packets  \\\n",
       "0                53          24950                  1                       1   \n",
       "1                53            190                  2                       2   \n",
       "2                53          31423                  2                       2   \n",
       "3             60588             43                  1                       1   \n",
       "4                53          30803                  2                       2   \n",
       "\n",
       "   Total Length of Fwd Packets  Total Length of Bwd Packets  \\\n",
       "0                           42                          124   \n",
       "1                           66                          386   \n",
       "2                           60                          320   \n",
       "3                            0                            0   \n",
       "4                           74                          230   \n",
       "\n",
       "   Fwd Packet Length Max  Fwd Packet Length Min  Fwd Packet Length Mean  \\\n",
       "0                     42                     42                    42.0   \n",
       "1                     33                     33                    33.0   \n",
       "2                     30                     30                    30.0   \n",
       "3                      0                      0                     0.0   \n",
       "4                     37                     37                    37.0   \n",
       "\n",
       "   Fwd Packet Length Std  ...  min_seg_size_forward  Active Mean  Active Std  \\\n",
       "0                    0.0  ...                    20          0.0         0.0   \n",
       "1                    0.0  ...                    20          0.0         0.0   \n",
       "2                    0.0  ...                    32          0.0         0.0   \n",
       "3                    0.0  ...                    32          0.0         0.0   \n",
       "4                    0.0  ...                    32          0.0         0.0   \n",
       "\n",
       "   Active Max  Active Min  Idle Mean  Idle Std  Idle Max  Idle Min   Label  \n",
       "0           0           0        0.0       0.0         0         0  BENIGN  \n",
       "1           0           0        0.0       0.0         0         0  BENIGN  \n",
       "2           0           0        0.0       0.0         0         0  BENIGN  \n",
       "3           0           0        0.0       0.0         0         0  BENIGN  \n",
       "4           0           0        0.0       0.0         0         0  BENIGN  \n",
       "\n",
       "[5 rows x 79 columns]"
      ]
     },
     "execution_count": 24,
     "metadata": {},
     "output_type": "execute_result"
    }
   ],
   "source": [
    "cicdataset = cicdataset.sample(frac=0.1)\n",
    "cicdataset.reset_index(drop=True, inplace=True)\n",
    "cicdataset.head()"
   ]
  },
  {
   "cell_type": "code",
   "execution_count": 25,
   "id": "c51ca1e2-6dfc-468e-bbd2-94002845bbfa",
   "metadata": {},
   "outputs": [],
   "source": [
    "# Define the discriminator model\n",
    "import torch\n",
    "from torch import nn\n",
    "\n",
    "\n",
    "class Discriminator(nn.Module):\n",
    "    def __init__(self):\n",
    "        super(Discriminator, self).__init__()\n",
    "        self.model = nn.Sequential(\n",
    "            nn.Linear(data_dim, 40),\n",
    "            nn.LeakyReLU(0.2, inplace=True),\n",
    "            nn.Linear(40, 32),\n",
    "            nn.LeakyReLU(0.2, inplace=True),\n",
    "            nn.Linear(32, 16),\n",
    "            nn.LeakyReLU(0.2, inplace=True),\n",
    "            nn.Linear(16, 8),\n",
    "            nn.LeakyReLU(0.2, inplace=True),\n",
    "            nn.Linear(8, 1),\n",
    "            nn.Sigmoid()\n",
    "        )\n",
    "\n",
    "    def forward(self, data):\n",
    "        validity = self.model(data)\n",
    "        return validity\n",
    "    \n",
    "    "
   ]
  },
  {
   "cell_type": "code",
   "execution_count": 26,
   "id": "032c0bf8-817c-47b8-a1cf-847abfca399b",
   "metadata": {},
   "outputs": [
    {
     "name": "stdout",
     "output_type": "stream",
     "text": [
      "['./models\\\\discr_model-lr=0.0002-batch=64-epochs=0.pth', './models\\\\discr_model-lr=0.0002-batch=64-epochs=1.pth', './models\\\\discr_model-lr=0.0002-batch=64-epochs=10.pth', './models\\\\discr_model-lr=0.0002-batch=64-epochs=11.pth', './models\\\\discr_model-lr=0.0002-batch=64-epochs=12.pth', './models\\\\discr_model-lr=0.0002-batch=64-epochs=13.pth', './models\\\\discr_model-lr=0.0002-batch=64-epochs=14.pth', './models\\\\discr_model-lr=0.0002-batch=64-epochs=15.pth', './models\\\\discr_model-lr=0.0002-batch=64-epochs=16.pth', './models\\\\discr_model-lr=0.0002-batch=64-epochs=17.pth', './models\\\\discr_model-lr=0.0002-batch=64-epochs=18.pth', './models\\\\discr_model-lr=0.0002-batch=64-epochs=19.pth', './models\\\\discr_model-lr=0.0002-batch=64-epochs=2.pth', './models\\\\discr_model-lr=0.0002-batch=64-epochs=20.pth', './models\\\\discr_model-lr=0.0002-batch=64-epochs=21.pth', './models\\\\discr_model-lr=0.0002-batch=64-epochs=22.pth', './models\\\\discr_model-lr=0.0002-batch=64-epochs=23.pth', './models\\\\discr_model-lr=0.0002-batch=64-epochs=24.pth', './models\\\\discr_model-lr=0.0002-batch=64-epochs=25.pth', './models\\\\discr_model-lr=0.0002-batch=64-epochs=26.pth', './models\\\\discr_model-lr=0.0002-batch=64-epochs=27.pth', './models\\\\discr_model-lr=0.0002-batch=64-epochs=28.pth', './models\\\\discr_model-lr=0.0002-batch=64-epochs=29.pth', './models\\\\discr_model-lr=0.0002-batch=64-epochs=3.pth', './models\\\\discr_model-lr=0.0002-batch=64-epochs=30.pth', './models\\\\discr_model-lr=0.0002-batch=64-epochs=31.pth', './models\\\\discr_model-lr=0.0002-batch=64-epochs=32.pth', './models\\\\discr_model-lr=0.0002-batch=64-epochs=33.pth', './models\\\\discr_model-lr=0.0002-batch=64-epochs=34.pth', './models\\\\discr_model-lr=0.0002-batch=64-epochs=35.pth', './models\\\\discr_model-lr=0.0002-batch=64-epochs=36.pth', './models\\\\discr_model-lr=0.0002-batch=64-epochs=37.pth', './models\\\\discr_model-lr=0.0002-batch=64-epochs=38.pth', './models\\\\discr_model-lr=0.0002-batch=64-epochs=39.pth', './models\\\\discr_model-lr=0.0002-batch=64-epochs=4.pth', './models\\\\discr_model-lr=0.0002-batch=64-epochs=40.pth', './models\\\\discr_model-lr=0.0002-batch=64-epochs=41.pth', './models\\\\discr_model-lr=0.0002-batch=64-epochs=42.pth', './models\\\\discr_model-lr=0.0002-batch=64-epochs=43.pth', './models\\\\discr_model-lr=0.0002-batch=64-epochs=44.pth', './models\\\\discr_model-lr=0.0002-batch=64-epochs=45.pth', './models\\\\discr_model-lr=0.0002-batch=64-epochs=46.pth', './models\\\\discr_model-lr=0.0002-batch=64-epochs=47.pth', './models\\\\discr_model-lr=0.0002-batch=64-epochs=48.pth', './models\\\\discr_model-lr=0.0002-batch=64-epochs=49.pth', './models\\\\discr_model-lr=0.0002-batch=64-epochs=5.pth', './models\\\\discr_model-lr=0.0002-batch=64-epochs=50.pth', './models\\\\discr_model-lr=0.0002-batch=64-epochs=51.pth', './models\\\\discr_model-lr=0.0002-batch=64-epochs=52.pth', './models\\\\discr_model-lr=0.0002-batch=64-epochs=53.pth', './models\\\\discr_model-lr=0.0002-batch=64-epochs=54.pth', './models\\\\discr_model-lr=0.0002-batch=64-epochs=55.pth', './models\\\\discr_model-lr=0.0002-batch=64-epochs=56.pth', './models\\\\discr_model-lr=0.0002-batch=64-epochs=57.pth', './models\\\\discr_model-lr=0.0002-batch=64-epochs=58.pth', './models\\\\discr_model-lr=0.0002-batch=64-epochs=59.pth', './models\\\\discr_model-lr=0.0002-batch=64-epochs=6.pth', './models\\\\discr_model-lr=0.0002-batch=64-epochs=60.pth', './models\\\\discr_model-lr=0.0002-batch=64-epochs=61.pth', './models\\\\discr_model-lr=0.0002-batch=64-epochs=62.pth', './models\\\\discr_model-lr=0.0002-batch=64-epochs=63.pth', './models\\\\discr_model-lr=0.0002-batch=64-epochs=64.pth', './models\\\\discr_model-lr=0.0002-batch=64-epochs=65.pth', './models\\\\discr_model-lr=0.0002-batch=64-epochs=66.pth', './models\\\\discr_model-lr=0.0002-batch=64-epochs=67.pth', './models\\\\discr_model-lr=0.0002-batch=64-epochs=68.pth', './models\\\\discr_model-lr=0.0002-batch=64-epochs=69.pth', './models\\\\discr_model-lr=0.0002-batch=64-epochs=7.pth', './models\\\\discr_model-lr=0.0002-batch=64-epochs=70.pth', './models\\\\discr_model-lr=0.0002-batch=64-epochs=71.pth', './models\\\\discr_model-lr=0.0002-batch=64-epochs=72.pth', './models\\\\discr_model-lr=0.0002-batch=64-epochs=73.pth', './models\\\\discr_model-lr=0.0002-batch=64-epochs=74.pth', './models\\\\discr_model-lr=0.0002-batch=64-epochs=75.pth', './models\\\\discr_model-lr=0.0002-batch=64-epochs=76.pth', './models\\\\discr_model-lr=0.0002-batch=64-epochs=77.pth', './models\\\\discr_model-lr=0.0002-batch=64-epochs=78.pth', './models\\\\discr_model-lr=0.0002-batch=64-epochs=79.pth', './models\\\\discr_model-lr=0.0002-batch=64-epochs=8.pth', './models\\\\discr_model-lr=0.0002-batch=64-epochs=80.pth', './models\\\\discr_model-lr=0.0002-batch=64-epochs=81.pth', './models\\\\discr_model-lr=0.0002-batch=64-epochs=82.pth', './models\\\\discr_model-lr=0.0002-batch=64-epochs=83.pth', './models\\\\discr_model-lr=0.0002-batch=64-epochs=84.pth', './models\\\\discr_model-lr=0.0002-batch=64-epochs=85.pth', './models\\\\discr_model-lr=0.0002-batch=64-epochs=86.pth', './models\\\\discr_model-lr=0.0002-batch=64-epochs=87.pth', './models\\\\discr_model-lr=0.0002-batch=64-epochs=88.pth', './models\\\\discr_model-lr=0.0002-batch=64-epochs=89.pth', './models\\\\discr_model-lr=0.0002-batch=64-epochs=9.pth', './models\\\\discr_model-lr=0.0002-batch=64-epochs=90.pth', './models\\\\discr_model-lr=0.0002-batch=64-epochs=91.pth', './models\\\\discr_model-lr=0.0002-batch=64-epochs=92.pth', './models\\\\discr_model-lr=0.0002-batch=64-epochs=93.pth', './models\\\\discr_model-lr=0.0002-batch=64-epochs=94.pth', './models\\\\discr_model-lr=0.0002-batch=64-epochs=95.pth', './models\\\\discr_model-lr=0.0002-batch=64-epochs=96.pth', './models\\\\discr_model-lr=0.0002-batch=64-epochs=97.pth', './models\\\\discr_model-lr=0.0002-batch=64-epochs=98.pth', './models\\\\discr_model-lr=0.0002-batch=64-epochs=99.pth']\n"
     ]
    }
   ],
   "source": [
    "# save all the different network configurations\n",
    "import glob\n",
    "\n",
    "discr_models_lst = glob.glob('./models/discr_model*.pth')\n",
    "print(discr_models_lst)"
   ]
  },
  {
   "cell_type": "code",
   "execution_count": 27,
   "id": "d436e59d-16e5-4dcd-8585-344db3e379de",
   "metadata": {},
   "outputs": [
    {
     "data": {
      "text/plain": [
       "'discr_model-lr=0.0002-batch=64-epochs=0.'"
      ]
     },
     "execution_count": 27,
     "metadata": {},
     "output_type": "execute_result"
    }
   ],
   "source": [
    "discr_models_lst[0][9:-3]"
   ]
  },
  {
   "cell_type": "code",
   "execution_count": 28,
   "id": "cf158f6d-2b20-40e9-87a3-2f67b17f2564",
   "metadata": {},
   "outputs": [],
   "source": [
    "data_dim = 47\n",
    "discriminator = Discriminator()"
   ]
  },
  {
   "cell_type": "code",
   "execution_count": 29,
   "id": "e339d05f-5c78-460f-a51f-da437c9fae40",
   "metadata": {},
   "outputs": [],
   "source": [
    "selected_features = ['Destination Port', 'Total Fwd Packets', 'Total Backward Packets', 'Total Length of Fwd Packets',\n",
    "                     'Total Length of Bwd Packets', 'Fwd Packet Length Max', 'Fwd Packet Length Min', 'Fwd Packet Length Mean',\n",
    "                     'Fwd Packet Length Std', 'Bwd Packet Length Max', 'Bwd Packet Length Min', 'Bwd Packet Length Mean', \n",
    "                     'Bwd Packet Length Std', 'Flow IAT Mean', 'Flow IAT Std', 'Flow IAT Max',\n",
    "                     'Flow IAT Min', 'Fwd IAT Mean', 'Fwd IAT Std', 'Fwd IAT Max', 'Fwd IAT Min', 'Bwd IAT Mean', 'Bwd IAT Std',\n",
    "                     'Bwd IAT Max', 'Bwd IAT Min', 'Min Packet Length', 'Max Packet Length', \n",
    "                     'Packet Length Mean', 'Packet Length Std', 'FIN Flag Count', 'SYN Flag Count', 'RST Flag Count', \n",
    "                     'PSH Flag Count', 'ACK Flag Count', 'URG Flag Count', 'CWE Flag Count', 'ECE Flag Count']\n",
    "\n",
    "added_features = ['Fwd PSH Flags', 'Fwd URG Flags', 'Bwd PSH Flags', 'Bwd URG Flags']\n",
    "\n",
    "#extra_features = ['Active Max', 'Idle Max' ]\n",
    "\n",
    "computed_features = ['Flow Duration', 'Flow Bytes/s', 'Flow Packets/s', 'Fwd Packets/s', 'Bwd Packets/s', 'Packet Length Variance']\n",
    "\n",
    "selected_features_total = (selected_features + \n",
    "                           added_features + \n",
    "                           computed_features)\n",
    "    "
   ]
  },
  {
   "cell_type": "code",
   "execution_count": 30,
   "id": "e3d158fa-2e2a-4dc4-907e-510b226bc92c",
   "metadata": {},
   "outputs": [
    {
     "name": "stdout",
     "output_type": "stream",
     "text": [
      "Index(['Destination Port', 'Flow Duration', 'Total Fwd Packets',\n",
      "       'Total Backward Packets', 'Total Length of Fwd Packets',\n",
      "       'Total Length of Bwd Packets', 'Fwd Packet Length Max',\n",
      "       'Fwd Packet Length Min', 'Fwd Packet Length Mean',\n",
      "       'Fwd Packet Length Std', 'Bwd Packet Length Max',\n",
      "       'Bwd Packet Length Min', 'Bwd Packet Length Mean',\n",
      "       'Bwd Packet Length Std', 'Flow Bytes/s', 'Flow Packets/s',\n",
      "       'Flow IAT Mean', 'Flow IAT Std', 'Flow IAT Max', 'Flow IAT Min',\n",
      "       'Fwd IAT Total', 'Fwd IAT Mean', 'Fwd IAT Std', 'Fwd IAT Max',\n",
      "       'Fwd IAT Min', 'Bwd IAT Total', 'Bwd IAT Mean', 'Bwd IAT Std',\n",
      "       'Bwd IAT Max', 'Bwd IAT Min', 'Fwd PSH Flags', 'Bwd PSH Flags',\n",
      "       'Fwd URG Flags', 'Bwd URG Flags', 'Fwd Header Length',\n",
      "       'Bwd Header Length', 'Fwd Packets/s', 'Bwd Packets/s',\n",
      "       'Min Packet Length', 'Max Packet Length', 'Packet Length Mean',\n",
      "       'Packet Length Std', 'Packet Length Variance', 'FIN Flag Count',\n",
      "       'SYN Flag Count', 'RST Flag Count', 'PSH Flag Count', 'ACK Flag Count',\n",
      "       'URG Flag Count', 'CWE Flag Count', 'ECE Flag Count', 'Down/Up Ratio',\n",
      "       'Average Packet Size', 'Avg Fwd Segment Size', 'Avg Bwd Segment Size',\n",
      "       'Fwd Header Length.1', 'Fwd Avg Bytes/Bulk', 'Fwd Avg Packets/Bulk',\n",
      "       'Fwd Avg Bulk Rate', 'Bwd Avg Bytes/Bulk', 'Bwd Avg Packets/Bulk',\n",
      "       'Bwd Avg Bulk Rate', 'Subflow Fwd Packets', 'Subflow Fwd Bytes',\n",
      "       'Subflow Bwd Packets', 'Subflow Bwd Bytes', 'Init_Win_bytes_forward',\n",
      "       'Init_Win_bytes_backward', 'act_data_pkt_fwd', 'min_seg_size_forward',\n",
      "       'Active Mean', 'Active Std', 'Active Max', 'Active Min', 'Idle Mean',\n",
      "       'Idle Std', 'Idle Max', 'Idle Min', 'Label'],\n",
      "      dtype='object')\n"
     ]
    }
   ],
   "source": [
    "print(cicdataset.columns)"
   ]
  },
  {
   "cell_type": "code",
   "execution_count": 31,
   "id": "955611ac-e8ba-4c42-8648-da94082c92e6",
   "metadata": {},
   "outputs": [],
   "source": [
    "minmaxscaler = joblib.load('minmaxscaler')"
   ]
  },
  {
   "cell_type": "code",
   "execution_count": 32,
   "id": "9167716e-6941-48d5-b42e-4eba8aead5fe",
   "metadata": {},
   "outputs": [],
   "source": [
    "simp = SimpleImputer(keep_empty_features=True)\n",
    "\n",
    "cicdataset_labels = cicdataset['Label']\n",
    "\n",
    "cicdataset = cicdataset[selected_features_total]\n",
    "\n",
    "cicdataset.replace([np.inf, -np.inf], np.nan, inplace=True)\n",
    "\n",
    "cicdataset_features = simp.fit_transform(cicdataset)\n",
    "\n",
    "cicdataset_features = minmaxscaler.transform(cicdataset_features)\n"
   ]
  },
  {
   "cell_type": "code",
   "execution_count": 33,
   "id": "81535333-ee6a-4d08-b024-8811c2b7c514",
   "metadata": {},
   "outputs": [
    {
     "name": "stdout",
     "output_type": "stream",
     "text": [
      "Results of ./models\\discr_model-lr=0.0002-batch=64-epochs=0.pth ...\n",
      "Number of total samples: 28307 | Number of correct BENIGN predictions: 21792 | Number of total BENIGN connections: 22652 | Number of correct ATTACK predictions: 4619 | Number of total ATTACK connections: 5655 | Accuracy BENIGN: 0.9620342574607099 | Accuracy ATTACK: 0.8167992926613616 \n",
      "Results of ./models\\discr_model-lr=0.0002-batch=64-epochs=1.pth ...\n",
      "Number of total samples: 28307 | Number of correct BENIGN predictions: 21487 | Number of total BENIGN connections: 22652 | Number of correct ATTACK predictions: 5008 | Number of total ATTACK connections: 5655 | Accuracy BENIGN: 0.9485696627229384 | Accuracy ATTACK: 0.8855879752431477 \n",
      "Results of ./models\\discr_model-lr=0.0002-batch=64-epochs=10.pth ...\n",
      "Number of total samples: 28307 | Number of correct BENIGN predictions: 22117 | Number of total BENIGN connections: 22652 | Number of correct ATTACK predictions: 4979 | Number of total ATTACK connections: 5655 | Accuracy BENIGN: 0.9763817764435812 | Accuracy ATTACK: 0.8804597701149425 \n",
      "Results of ./models\\discr_model-lr=0.0002-batch=64-epochs=11.pth ...\n",
      "Number of total samples: 28307 | Number of correct BENIGN predictions: 22000 | Number of total BENIGN connections: 22652 | Number of correct ATTACK predictions: 4939 | Number of total ATTACK connections: 5655 | Accuracy BENIGN: 0.9712166696097475 | Accuracy ATTACK: 0.8733863837312114 \n",
      "Results of ./models\\discr_model-lr=0.0002-batch=64-epochs=12.pth ...\n",
      "Number of total samples: 28307 | Number of correct BENIGN predictions: 22203 | Number of total BENIGN connections: 22652 | Number of correct ATTACK predictions: 5021 | Number of total ATTACK connections: 5655 | Accuracy BENIGN: 0.9801783506975101 | Accuracy ATTACK: 0.8878868258178603 \n",
      "Results of ./models\\discr_model-lr=0.0002-batch=64-epochs=13.pth ...\n",
      "Number of total samples: 28307 | Number of correct BENIGN predictions: 22192 | Number of total BENIGN connections: 22652 | Number of correct ATTACK predictions: 5075 | Number of total ATTACK connections: 5655 | Accuracy BENIGN: 0.9796927423627053 | Accuracy ATTACK: 0.8974358974358975 \n",
      "Results of ./models\\discr_model-lr=0.0002-batch=64-epochs=14.pth ...\n",
      "Number of total samples: 28307 | Number of correct BENIGN predictions: 22220 | Number of total BENIGN connections: 22652 | Number of correct ATTACK predictions: 5065 | Number of total ATTACK connections: 5655 | Accuracy BENIGN: 0.9809288363058449 | Accuracy ATTACK: 0.8956675508399646 \n",
      "Results of ./models\\discr_model-lr=0.0002-batch=64-epochs=15.pth ...\n",
      "Number of total samples: 28307 | Number of correct BENIGN predictions: 22080 | Number of total BENIGN connections: 22652 | Number of correct ATTACK predictions: 5125 | Number of total ATTACK connections: 5655 | Accuracy BENIGN: 0.9747483665901465 | Accuracy ATTACK: 0.9062776304155614 \n",
      "Results of ./models\\discr_model-lr=0.0002-batch=64-epochs=16.pth ...\n",
      "Number of total samples: 28307 | Number of correct BENIGN predictions: 22135 | Number of total BENIGN connections: 22652 | Number of correct ATTACK predictions: 5043 | Number of total ATTACK connections: 5655 | Accuracy BENIGN: 0.977176408264171 | Accuracy ATTACK: 0.8917771883289125 \n",
      "Results of ./models\\discr_model-lr=0.0002-batch=64-epochs=17.pth ...\n",
      "Number of total samples: 28307 | Number of correct BENIGN predictions: 22219 | Number of total BENIGN connections: 22652 | Number of correct ATTACK predictions: 5034 | Number of total ATTACK connections: 5655 | Accuracy BENIGN: 0.9808846900935899 | Accuracy ATTACK: 0.890185676392573 \n",
      "Results of ./models\\discr_model-lr=0.0002-batch=64-epochs=18.pth ...\n",
      "Number of total samples: 28307 | Number of correct BENIGN predictions: 22126 | Number of total BENIGN connections: 22652 | Number of correct ATTACK predictions: 5228 | Number of total ATTACK connections: 5655 | Accuracy BENIGN: 0.976779092353876 | Accuracy ATTACK: 0.9244916003536693 \n",
      "Results of ./models\\discr_model-lr=0.0002-batch=64-epochs=19.pth ...\n",
      "Number of total samples: 28307 | Number of correct BENIGN predictions: 22103 | Number of total BENIGN connections: 22652 | Number of correct ATTACK predictions: 5319 | Number of total ATTACK connections: 5655 | Accuracy BENIGN: 0.9757637294720113 | Accuracy ATTACK: 0.9405835543766579 \n",
      "Results of ./models\\discr_model-lr=0.0002-batch=64-epochs=2.pth ...\n",
      "Number of total samples: 28307 | Number of correct BENIGN predictions: 21856 | Number of total BENIGN connections: 22652 | Number of correct ATTACK predictions: 4962 | Number of total ATTACK connections: 5655 | Accuracy BENIGN: 0.9648596150450292 | Accuracy ATTACK: 0.8774535809018568 \n",
      "Results of ./models\\discr_model-lr=0.0002-batch=64-epochs=20.pth ...\n",
      "Number of total samples: 28307 | Number of correct BENIGN predictions: 21922 | Number of total BENIGN connections: 22652 | Number of correct ATTACK predictions: 5378 | Number of total ATTACK connections: 5655 | Accuracy BENIGN: 0.9677732650538584 | Accuracy ATTACK: 0.9510167992926614 \n",
      "Results of ./models\\discr_model-lr=0.0002-batch=64-epochs=21.pth ...\n",
      "Number of total samples: 28307 | Number of correct BENIGN predictions: 22167 | Number of total BENIGN connections: 22652 | Number of correct ATTACK predictions: 5290 | Number of total ATTACK connections: 5655 | Accuracy BENIGN: 0.9785890870563305 | Accuracy ATTACK: 0.9354553492484527 \n",
      "Results of ./models\\discr_model-lr=0.0002-batch=64-epochs=22.pth ...\n",
      "Number of total samples: 28307 | Number of correct BENIGN predictions: 22169 | Number of total BENIGN connections: 22652 | Number of correct ATTACK predictions: 5232 | Number of total ATTACK connections: 5655 | Accuracy BENIGN: 0.9786773794808405 | Accuracy ATTACK: 0.9251989389920424 \n",
      "Results of ./models\\discr_model-lr=0.0002-batch=64-epochs=23.pth ...\n",
      "Number of total samples: 28307 | Number of correct BENIGN predictions: 22027 | Number of total BENIGN connections: 22652 | Number of correct ATTACK predictions: 5382 | Number of total ATTACK connections: 5655 | Accuracy BENIGN: 0.9724086173406322 | Accuracy ATTACK: 0.9517241379310345 \n",
      "Results of ./models\\discr_model-lr=0.0002-batch=64-epochs=24.pth ...\n",
      "Number of total samples: 28307 | Number of correct BENIGN predictions: 22112 | Number of total BENIGN connections: 22652 | Number of correct ATTACK predictions: 5317 | Number of total ATTACK connections: 5655 | Accuracy BENIGN: 0.9761610453823062 | Accuracy ATTACK: 0.9402298850574713 \n",
      "Results of ./models\\discr_model-lr=0.0002-batch=64-epochs=25.pth ...\n",
      "Number of total samples: 28307 | Number of correct BENIGN predictions: 22098 | Number of total BENIGN connections: 22652 | Number of correct ATTACK predictions: 5404 | Number of total ATTACK connections: 5655 | Accuracy BENIGN: 0.9755429984107363 | Accuracy ATTACK: 0.9556145004420866 \n",
      "Results of ./models\\discr_model-lr=0.0002-batch=64-epochs=26.pth ...\n",
      "Number of total samples: 28307 | Number of correct BENIGN predictions: 22099 | Number of total BENIGN connections: 22652 | Number of correct ATTACK predictions: 5440 | Number of total ATTACK connections: 5655 | Accuracy BENIGN: 0.9755871446229913 | Accuracy ATTACK: 0.9619805481874447 \n",
      "Results of ./models\\discr_model-lr=0.0002-batch=64-epochs=27.pth ...\n",
      "Number of total samples: 28307 | Number of correct BENIGN predictions: 22136 | Number of total BENIGN connections: 22652 | Number of correct ATTACK predictions: 5427 | Number of total ATTACK connections: 5655 | Accuracy BENIGN: 0.977220554476426 | Accuracy ATTACK: 0.9596816976127321 \n",
      "Results of ./models\\discr_model-lr=0.0002-batch=64-epochs=28.pth ...\n",
      "Number of total samples: 28307 | Number of correct BENIGN predictions: 22087 | Number of total BENIGN connections: 22652 | Number of correct ATTACK predictions: 5398 | Number of total ATTACK connections: 5655 | Accuracy BENIGN: 0.9750573900759315 | Accuracy ATTACK: 0.9545534924845269 \n",
      "Results of ./models\\discr_model-lr=0.0002-batch=64-epochs=29.pth ...\n",
      "Number of total samples: 28307 | Number of correct BENIGN predictions: 22041 | Number of total BENIGN connections: 22652 | Number of correct ATTACK predictions: 5531 | Number of total ATTACK connections: 5655 | Accuracy BENIGN: 0.973026664312202 | Accuracy ATTACK: 0.9780725022104333 \n",
      "Results of ./models\\discr_model-lr=0.0002-batch=64-epochs=3.pth ...\n",
      "Number of total samples: 28307 | Number of correct BENIGN predictions: 21933 | Number of total BENIGN connections: 22652 | Number of correct ATTACK predictions: 4962 | Number of total ATTACK connections: 5655 | Accuracy BENIGN: 0.9682588733886632 | Accuracy ATTACK: 0.8774535809018568 \n",
      "Results of ./models\\discr_model-lr=0.0002-batch=64-epochs=30.pth ...\n",
      "Number of total samples: 28307 | Number of correct BENIGN predictions: 22071 | Number of total BENIGN connections: 22652 | Number of correct ATTACK predictions: 5508 | Number of total ATTACK connections: 5655 | Accuracy BENIGN: 0.9743510506798516 | Accuracy ATTACK: 0.9740053050397878 \n",
      "Results of ./models\\discr_model-lr=0.0002-batch=64-epochs=31.pth ...\n",
      "Number of total samples: 28307 | Number of correct BENIGN predictions: 22061 | Number of total BENIGN connections: 22652 | Number of correct ATTACK predictions: 5543 | Number of total ATTACK connections: 5655 | Accuracy BENIGN: 0.9739095885573018 | Accuracy ATTACK: 0.9801945181255526 \n",
      "Results of ./models\\discr_model-lr=0.0002-batch=64-epochs=32.pth ...\n",
      "Number of total samples: 28307 | Number of correct BENIGN predictions: 22081 | Number of total BENIGN connections: 22652 | Number of correct ATTACK predictions: 5495 | Number of total ATTACK connections: 5655 | Accuracy BENIGN: 0.9747925128024015 | Accuracy ATTACK: 0.9717064544650752 \n",
      "Results of ./models\\discr_model-lr=0.0002-batch=64-epochs=33.pth ...\n",
      "Number of total samples: 28307 | Number of correct BENIGN predictions: 21903 | Number of total BENIGN connections: 22652 | Number of correct ATTACK predictions: 5524 | Number of total ATTACK connections: 5655 | Accuracy BENIGN: 0.9669344870210136 | Accuracy ATTACK: 0.9768346595932803 \n",
      "Results of ./models\\discr_model-lr=0.0002-batch=64-epochs=34.pth ...\n",
      "Number of total samples: 28307 | Number of correct BENIGN predictions: 22165 | Number of total BENIGN connections: 22652 | Number of correct ATTACK predictions: 5448 | Number of total ATTACK connections: 5655 | Accuracy BENIGN: 0.9785007946318206 | Accuracy ATTACK: 0.963395225464191 \n",
      "Results of ./models\\discr_model-lr=0.0002-batch=64-epochs=35.pth ...\n",
      "Number of total samples: 28307 | Number of correct BENIGN predictions: 21917 | Number of total BENIGN connections: 22652 | Number of correct ATTACK predictions: 5547 | Number of total ATTACK connections: 5655 | Accuracy BENIGN: 0.9675525339925835 | Accuracy ATTACK: 0.9809018567639257 \n",
      "Results of ./models\\discr_model-lr=0.0002-batch=64-epochs=36.pth ...\n",
      "Number of total samples: 28307 | Number of correct BENIGN predictions: 22106 | Number of total BENIGN connections: 22652 | Number of correct ATTACK predictions: 5510 | Number of total ATTACK connections: 5655 | Accuracy BENIGN: 0.9758961681087762 | Accuracy ATTACK: 0.9743589743589743 \n",
      "Results of ./models\\discr_model-lr=0.0002-batch=64-epochs=37.pth ...\n",
      "Number of total samples: 28307 | Number of correct BENIGN predictions: 22251 | Number of total BENIGN connections: 22652 | Number of correct ATTACK predictions: 5305 | Number of total ATTACK connections: 5655 | Accuracy BENIGN: 0.9822973688857496 | Accuracy ATTACK: 0.9381078691423519 \n",
      "Results of ./models\\discr_model-lr=0.0002-batch=64-epochs=38.pth ...\n",
      "Number of total samples: 28307 | Number of correct BENIGN predictions: 22020 | Number of total BENIGN connections: 22652 | Number of correct ATTACK predictions: 5542 | Number of total ATTACK connections: 5655 | Accuracy BENIGN: 0.9720995938548472 | Accuracy ATTACK: 0.9800176834659593 \n",
      "Results of ./models\\discr_model-lr=0.0002-batch=64-epochs=39.pth ...\n",
      "Number of total samples: 28307 | Number of correct BENIGN predictions: 22126 | Number of total BENIGN connections: 22652 | Number of correct ATTACK predictions: 5508 | Number of total ATTACK connections: 5655 | Accuracy BENIGN: 0.976779092353876 | Accuracy ATTACK: 0.9740053050397878 \n",
      "Results of ./models\\discr_model-lr=0.0002-batch=64-epochs=4.pth ...\n",
      "Number of total samples: 28307 | Number of correct BENIGN predictions: 21953 | Number of total BENIGN connections: 22652 | Number of correct ATTACK predictions: 4953 | Number of total ATTACK connections: 5655 | Accuracy BENIGN: 0.9691417976337631 | Accuracy ATTACK: 0.8758620689655172 \n",
      "Results of ./models\\discr_model-lr=0.0002-batch=64-epochs=40.pth ...\n",
      "Number of total samples: 28307 | Number of correct BENIGN predictions: 22033 | Number of total BENIGN connections: 22652 | Number of correct ATTACK predictions: 5470 | Number of total ATTACK connections: 5655 | Accuracy BENIGN: 0.9726734946141621 | Accuracy ATTACK: 0.9672855879752431 \n",
      "Results of ./models\\discr_model-lr=0.0002-batch=64-epochs=41.pth ...\n",
      "Number of total samples: 28307 | Number of correct BENIGN predictions: 22078 | Number of total BENIGN connections: 22652 | Number of correct ATTACK predictions: 5543 | Number of total ATTACK connections: 5655 | Accuracy BENIGN: 0.9746600741656366 | Accuracy ATTACK: 0.9801945181255526 \n",
      "Results of ./models\\discr_model-lr=0.0002-batch=64-epochs=42.pth ...\n",
      "Number of total samples: 28307 | Number of correct BENIGN predictions: 22235 | Number of total BENIGN connections: 22652 | Number of correct ATTACK predictions: 5220 | Number of total ATTACK connections: 5655 | Accuracy BENIGN: 0.9815910294896698 | Accuracy ATTACK: 0.9230769230769231 \n",
      "Results of ./models\\discr_model-lr=0.0002-batch=64-epochs=43.pth ...\n",
      "Number of total samples: 28307 | Number of correct BENIGN predictions: 22256 | Number of total BENIGN connections: 22652 | Number of correct ATTACK predictions: 5273 | Number of total ATTACK connections: 5655 | Accuracy BENIGN: 0.9825180999470245 | Accuracy ATTACK: 0.9324491600353669 \n",
      "Results of ./models\\discr_model-lr=0.0002-batch=64-epochs=44.pth ...\n",
      "Number of total samples: 28307 | Number of correct BENIGN predictions: 22023 | Number of total BENIGN connections: 22652 | Number of correct ATTACK predictions: 5489 | Number of total ATTACK connections: 5655 | Accuracy BENIGN: 0.9722320324916123 | Accuracy ATTACK: 0.9706454465075155 \n",
      "Results of ./models\\discr_model-lr=0.0002-batch=64-epochs=45.pth ...\n",
      "Number of total samples: 28307 | Number of correct BENIGN predictions: 22271 | Number of total BENIGN connections: 22652 | Number of correct ATTACK predictions: 5220 | Number of total ATTACK connections: 5655 | Accuracy BENIGN: 0.9831802931308494 | Accuracy ATTACK: 0.9230769230769231 \n",
      "Results of ./models\\discr_model-lr=0.0002-batch=64-epochs=46.pth ...\n",
      "Number of total samples: 28307 | Number of correct BENIGN predictions: 22162 | Number of total BENIGN connections: 22652 | Number of correct ATTACK predictions: 5382 | Number of total ATTACK connections: 5655 | Accuracy BENIGN: 0.9783683559950557 | Accuracy ATTACK: 0.9517241379310345 \n",
      "Results of ./models\\discr_model-lr=0.0002-batch=64-epochs=47.pth ...\n",
      "Number of total samples: 28307 | Number of correct BENIGN predictions: 22151 | Number of total BENIGN connections: 22652 | Number of correct ATTACK predictions: 5291 | Number of total ATTACK connections: 5655 | Accuracy BENIGN: 0.9778827476602507 | Accuracy ATTACK: 0.9356321839080459 \n",
      "Results of ./models\\discr_model-lr=0.0002-batch=64-epochs=48.pth ...\n",
      "Number of total samples: 28307 | Number of correct BENIGN predictions: 22176 | Number of total BENIGN connections: 22652 | Number of correct ATTACK predictions: 5323 | Number of total ATTACK connections: 5655 | Accuracy BENIGN: 0.9789864029666254 | Accuracy ATTACK: 0.941290893015031 \n",
      "Results of ./models\\discr_model-lr=0.0002-batch=64-epochs=49.pth ...\n",
      "Number of total samples: 28307 | Number of correct BENIGN predictions: 22196 | Number of total BENIGN connections: 22652 | Number of correct ATTACK predictions: 5360 | Number of total ATTACK connections: 5655 | Accuracy BENIGN: 0.9798693272117253 | Accuracy ATTACK: 0.9478337754199824 \n",
      "Results of ./models\\discr_model-lr=0.0002-batch=64-epochs=5.pth ...\n",
      "Number of total samples: 28307 | Number of correct BENIGN predictions: 21838 | Number of total BENIGN connections: 22652 | Number of correct ATTACK predictions: 4936 | Number of total ATTACK connections: 5655 | Accuracy BENIGN: 0.9640649832244393 | Accuracy ATTACK: 0.8728558797524315 \n",
      "Results of ./models\\discr_model-lr=0.0002-batch=64-epochs=50.pth ...\n",
      "Number of total samples: 28307 | Number of correct BENIGN predictions: 22106 | Number of total BENIGN connections: 22652 | Number of correct ATTACK predictions: 5516 | Number of total ATTACK connections: 5655 | Accuracy BENIGN: 0.9758961681087762 | Accuracy ATTACK: 0.975419982316534 \n",
      "Results of ./models\\discr_model-lr=0.0002-batch=64-epochs=51.pth ...\n",
      "Number of total samples: 28307 | Number of correct BENIGN predictions: 22225 | Number of total BENIGN connections: 22652 | Number of correct ATTACK predictions: 5282 | Number of total ATTACK connections: 5655 | Accuracy BENIGN: 0.9811495673671199 | Accuracy ATTACK: 0.9340406719717065 \n",
      "Results of ./models\\discr_model-lr=0.0002-batch=64-epochs=52.pth ...\n",
      "Number of total samples: 28307 | Number of correct BENIGN predictions: 22226 | Number of total BENIGN connections: 22652 | Number of correct ATTACK predictions: 5290 | Number of total ATTACK connections: 5655 | Accuracy BENIGN: 0.9811937135793749 | Accuracy ATTACK: 0.9354553492484527 \n",
      "Results of ./models\\discr_model-lr=0.0002-batch=64-epochs=53.pth ...\n",
      "Number of total samples: 28307 | Number of correct BENIGN predictions: 21831 | Number of total BENIGN connections: 22652 | Number of correct ATTACK predictions: 5556 | Number of total ATTACK connections: 5655 | Accuracy BENIGN: 0.9637559597386545 | Accuracy ATTACK: 0.9824933687002653 \n",
      "Results of ./models\\discr_model-lr=0.0002-batch=64-epochs=54.pth ...\n",
      "Number of total samples: 28307 | Number of correct BENIGN predictions: 22243 | Number of total BENIGN connections: 22652 | Number of correct ATTACK predictions: 5284 | Number of total ATTACK connections: 5655 | Accuracy BENIGN: 0.9819441991877097 | Accuracy ATTACK: 0.934394341290893 \n",
      "Results of ./models\\discr_model-lr=0.0002-batch=64-epochs=55.pth ...\n",
      "Number of total samples: 28307 | Number of correct BENIGN predictions: 22144 | Number of total BENIGN connections: 22652 | Number of correct ATTACK predictions: 5201 | Number of total ATTACK connections: 5655 | Accuracy BENIGN: 0.9775737241744659 | Accuracy ATTACK: 0.9197170645446507 \n",
      "Results of ./models\\discr_model-lr=0.0002-batch=64-epochs=56.pth ...\n",
      "Number of total samples: 28307 | Number of correct BENIGN predictions: 22113 | Number of total BENIGN connections: 22652 | Number of correct ATTACK predictions: 5519 | Number of total ATTACK connections: 5655 | Accuracy BENIGN: 0.9762051915945612 | Accuracy ATTACK: 0.9759504862953139 \n",
      "Results of ./models\\discr_model-lr=0.0002-batch=64-epochs=57.pth ...\n",
      "Number of total samples: 28307 | Number of correct BENIGN predictions: 22165 | Number of total BENIGN connections: 22652 | Number of correct ATTACK predictions: 5497 | Number of total ATTACK connections: 5655 | Accuracy BENIGN: 0.9785007946318206 | Accuracy ATTACK: 0.9720601237842618 \n",
      "Results of ./models\\discr_model-lr=0.0002-batch=64-epochs=58.pth ...\n",
      "Number of total samples: 28307 | Number of correct BENIGN predictions: 22141 | Number of total BENIGN connections: 22652 | Number of correct ATTACK predictions: 5491 | Number of total ATTACK connections: 5655 | Accuracy BENIGN: 0.9774412855377008 | Accuracy ATTACK: 0.9709991158267021 \n",
      "Results of ./models\\discr_model-lr=0.0002-batch=64-epochs=59.pth ...\n",
      "Number of total samples: 28307 | Number of correct BENIGN predictions: 22126 | Number of total BENIGN connections: 22652 | Number of correct ATTACK predictions: 5535 | Number of total ATTACK connections: 5655 | Accuracy BENIGN: 0.976779092353876 | Accuracy ATTACK: 0.9787798408488063 \n",
      "Results of ./models\\discr_model-lr=0.0002-batch=64-epochs=6.pth ...\n",
      "Number of total samples: 28307 | Number of correct BENIGN predictions: 21882 | Number of total BENIGN connections: 22652 | Number of correct ATTACK predictions: 5029 | Number of total ATTACK connections: 5655 | Accuracy BENIGN: 0.9660074165636588 | Accuracy ATTACK: 0.8893015030946065 \n",
      "Results of ./models\\discr_model-lr=0.0002-batch=64-epochs=60.pth ...\n",
      "Number of total samples: 28307 | Number of correct BENIGN predictions: 22097 | Number of total BENIGN connections: 22652 | Number of correct ATTACK predictions: 5531 | Number of total ATTACK connections: 5655 | Accuracy BENIGN: 0.9754988521984814 | Accuracy ATTACK: 0.9780725022104333 \n",
      "Results of ./models\\discr_model-lr=0.0002-batch=64-epochs=61.pth ...\n",
      "Number of total samples: 28307 | Number of correct BENIGN predictions: 22209 | Number of total BENIGN connections: 22652 | Number of correct ATTACK predictions: 5287 | Number of total ATTACK connections: 5655 | Accuracy BENIGN: 0.9804432279710401 | Accuracy ATTACK: 0.9349248452696729 \n",
      "Results of ./models\\discr_model-lr=0.0002-batch=64-epochs=62.pth ...\n",
      "Number of total samples: 28307 | Number of correct BENIGN predictions: 21954 | Number of total BENIGN connections: 22652 | Number of correct ATTACK predictions: 5552 | Number of total ATTACK connections: 5655 | Accuracy BENIGN: 0.969185943846018 | Accuracy ATTACK: 0.9817860300618921 \n",
      "Results of ./models\\discr_model-lr=0.0002-batch=64-epochs=63.pth ...\n",
      "Number of total samples: 28307 | Number of correct BENIGN predictions: 22190 | Number of total BENIGN connections: 22652 | Number of correct ATTACK predictions: 5491 | Number of total ATTACK connections: 5655 | Accuracy BENIGN: 0.9796044499381953 | Accuracy ATTACK: 0.9709991158267021 \n",
      "Results of ./models\\discr_model-lr=0.0002-batch=64-epochs=64.pth ...\n",
      "Number of total samples: 28307 | Number of correct BENIGN predictions: 22232 | Number of total BENIGN connections: 22652 | Number of correct ATTACK predictions: 5240 | Number of total ATTACK connections: 5655 | Accuracy BENIGN: 0.9814585908529048 | Accuracy ATTACK: 0.9266136162687887 \n",
      "Results of ./models\\discr_model-lr=0.0002-batch=64-epochs=65.pth ...\n",
      "Number of total samples: 28307 | Number of correct BENIGN predictions: 22272 | Number of total BENIGN connections: 22652 | Number of correct ATTACK predictions: 5287 | Number of total ATTACK connections: 5655 | Accuracy BENIGN: 0.9832244393431043 | Accuracy ATTACK: 0.9349248452696729 \n",
      "Results of ./models\\discr_model-lr=0.0002-batch=64-epochs=66.pth ...\n",
      "Number of total samples: 28307 | Number of correct BENIGN predictions: 22216 | Number of total BENIGN connections: 22652 | Number of correct ATTACK predictions: 5407 | Number of total ATTACK connections: 5655 | Accuracy BENIGN: 0.980752251456825 | Accuracy ATTACK: 0.9561450044208665 \n",
      "Results of ./models\\discr_model-lr=0.0002-batch=64-epochs=67.pth ...\n",
      "Number of total samples: 28307 | Number of correct BENIGN predictions: 22175 | Number of total BENIGN connections: 22652 | Number of correct ATTACK predictions: 5492 | Number of total ATTACK connections: 5655 | Accuracy BENIGN: 0.9789422567543705 | Accuracy ATTACK: 0.9711759504862953 \n",
      "Results of ./models\\discr_model-lr=0.0002-batch=64-epochs=68.pth ...\n",
      "Number of total samples: 28307 | Number of correct BENIGN predictions: 22022 | Number of total BENIGN connections: 22652 | Number of correct ATTACK predictions: 5492 | Number of total ATTACK connections: 5655 | Accuracy BENIGN: 0.9721878862793573 | Accuracy ATTACK: 0.9711759504862953 \n",
      "Results of ./models\\discr_model-lr=0.0002-batch=64-epochs=69.pth ...\n",
      "Number of total samples: 28307 | Number of correct BENIGN predictions: 22271 | Number of total BENIGN connections: 22652 | Number of correct ATTACK predictions: 5293 | Number of total ATTACK connections: 5655 | Accuracy BENIGN: 0.9831802931308494 | Accuracy ATTACK: 0.9359858532272325 \n",
      "Results of ./models\\discr_model-lr=0.0002-batch=64-epochs=7.pth ...\n",
      "Number of total samples: 28307 | Number of correct BENIGN predictions: 21898 | Number of total BENIGN connections: 22652 | Number of correct ATTACK predictions: 5009 | Number of total ATTACK connections: 5655 | Accuracy BENIGN: 0.9667137559597386 | Accuracy ATTACK: 0.885764809902741 \n",
      "Results of ./models\\discr_model-lr=0.0002-batch=64-epochs=70.pth ...\n",
      "Number of total samples: 28307 | Number of correct BENIGN predictions: 22183 | Number of total BENIGN connections: 22652 | Number of correct ATTACK predictions: 5485 | Number of total ATTACK connections: 5655 | Accuracy BENIGN: 0.9792954264524104 | Accuracy ATTACK: 0.9699381078691424 \n",
      "Results of ./models\\discr_model-lr=0.0002-batch=64-epochs=71.pth ...\n",
      "Number of total samples: 28307 | Number of correct BENIGN predictions: 21987 | Number of total BENIGN connections: 22652 | Number of correct ATTACK predictions: 5480 | Number of total ATTACK connections: 5655 | Accuracy BENIGN: 0.9706427688504327 | Accuracy ATTACK: 0.969053934571176 \n",
      "Results of ./models\\discr_model-lr=0.0002-batch=64-epochs=72.pth ...\n",
      "Number of total samples: 28307 | Number of correct BENIGN predictions: 21941 | Number of total BENIGN connections: 22652 | Number of correct ATTACK predictions: 5492 | Number of total ATTACK connections: 5655 | Accuracy BENIGN: 0.9686120430867031 | Accuracy ATTACK: 0.9711759504862953 \n",
      "Results of ./models\\discr_model-lr=0.0002-batch=64-epochs=73.pth ...\n",
      "Number of total samples: 28307 | Number of correct BENIGN predictions: 21989 | Number of total BENIGN connections: 22652 | Number of correct ATTACK predictions: 5488 | Number of total ATTACK connections: 5655 | Accuracy BENIGN: 0.9707310612749426 | Accuracy ATTACK: 0.9704686118479222 \n",
      "Results of ./models\\discr_model-lr=0.0002-batch=64-epochs=74.pth ...\n",
      "Number of total samples: 28307 | Number of correct BENIGN predictions: 22150 | Number of total BENIGN connections: 22652 | Number of correct ATTACK predictions: 5287 | Number of total ATTACK connections: 5655 | Accuracy BENIGN: 0.9778386014479957 | Accuracy ATTACK: 0.9349248452696729 \n",
      "Results of ./models\\discr_model-lr=0.0002-batch=64-epochs=75.pth ...\n",
      "Number of total samples: 28307 | Number of correct BENIGN predictions: 22076 | Number of total BENIGN connections: 22652 | Number of correct ATTACK predictions: 5447 | Number of total ATTACK connections: 5655 | Accuracy BENIGN: 0.9745717817411266 | Accuracy ATTACK: 0.9632183908045977 \n",
      "Results of ./models\\discr_model-lr=0.0002-batch=64-epochs=76.pth ...\n",
      "Number of total samples: 28307 | Number of correct BENIGN predictions: 22210 | Number of total BENIGN connections: 22652 | Number of correct ATTACK predictions: 5262 | Number of total ATTACK connections: 5655 | Accuracy BENIGN: 0.9804873741832951 | Accuracy ATTACK: 0.9305039787798408 \n",
      "Results of ./models\\discr_model-lr=0.0002-batch=64-epochs=77.pth ...\n",
      "Number of total samples: 28307 | Number of correct BENIGN predictions: 22231 | Number of total BENIGN connections: 22652 | Number of correct ATTACK predictions: 5239 | Number of total ATTACK connections: 5655 | Accuracy BENIGN: 0.9814144446406499 | Accuracy ATTACK: 0.9264367816091954 \n",
      "Results of ./models\\discr_model-lr=0.0002-batch=64-epochs=78.pth ...\n",
      "Number of total samples: 28307 | Number of correct BENIGN predictions: 22245 | Number of total BENIGN connections: 22652 | Number of correct ATTACK predictions: 5143 | Number of total ATTACK connections: 5655 | Accuracy BENIGN: 0.9820324916122197 | Accuracy ATTACK: 0.9094606542882405 \n",
      "Results of ./models\\discr_model-lr=0.0002-batch=64-epochs=79.pth ...\n",
      "Number of total samples: 28307 | Number of correct BENIGN predictions: 22202 | Number of total BENIGN connections: 22652 | Number of correct ATTACK predictions: 5303 | Number of total ATTACK connections: 5655 | Accuracy BENIGN: 0.9801342044852551 | Accuracy ATTACK: 0.9377541998231653 \n",
      "Results of ./models\\discr_model-lr=0.0002-batch=64-epochs=8.pth ...\n",
      "Number of total samples: 28307 | Number of correct BENIGN predictions: 22069 | Number of total BENIGN connections: 22652 | Number of correct ATTACK predictions: 5042 | Number of total ATTACK connections: 5655 | Accuracy BENIGN: 0.9742627582553417 | Accuracy ATTACK: 0.8916003536693192 \n",
      "Results of ./models\\discr_model-lr=0.0002-batch=64-epochs=80.pth ...\n",
      "Number of total samples: 28307 | Number of correct BENIGN predictions: 22175 | Number of total BENIGN connections: 22652 | Number of correct ATTACK predictions: 5286 | Number of total ATTACK connections: 5655 | Accuracy BENIGN: 0.9789422567543705 | Accuracy ATTACK: 0.9347480106100796 \n",
      "Results of ./models\\discr_model-lr=0.0002-batch=64-epochs=81.pth ...\n",
      "Number of total samples: 28307 | Number of correct BENIGN predictions: 22093 | Number of total BENIGN connections: 22652 | Number of correct ATTACK predictions: 5459 | Number of total ATTACK connections: 5655 | Accuracy BENIGN: 0.9753222673494614 | Accuracy ATTACK: 0.9653404067197171 \n",
      "Results of ./models\\discr_model-lr=0.0002-batch=64-epochs=82.pth ...\n",
      "Number of total samples: 28307 | Number of correct BENIGN predictions: 22128 | Number of total BENIGN connections: 22652 | Number of correct ATTACK predictions: 5486 | Number of total ATTACK connections: 5655 | Accuracy BENIGN: 0.976867384778386 | Accuracy ATTACK: 0.9701149425287356 \n",
      "Results of ./models\\discr_model-lr=0.0002-batch=64-epochs=83.pth ...\n",
      "Number of total samples: 28307 | Number of correct BENIGN predictions: 22158 | Number of total BENIGN connections: 22652 | Number of correct ATTACK predictions: 5418 | Number of total ATTACK connections: 5655 | Accuracy BENIGN: 0.9781917711460356 | Accuracy ATTACK: 0.9580901856763926 \n",
      "Results of ./models\\discr_model-lr=0.0002-batch=64-epochs=84.pth ...\n",
      "Number of total samples: 28307 | Number of correct BENIGN predictions: 22232 | Number of total BENIGN connections: 22652 | Number of correct ATTACK predictions: 5273 | Number of total ATTACK connections: 5655 | Accuracy BENIGN: 0.9814585908529048 | Accuracy ATTACK: 0.9324491600353669 \n",
      "Results of ./models\\discr_model-lr=0.0002-batch=64-epochs=85.pth ...\n",
      "Number of total samples: 28307 | Number of correct BENIGN predictions: 22070 | Number of total BENIGN connections: 22652 | Number of correct ATTACK predictions: 5524 | Number of total ATTACK connections: 5655 | Accuracy BENIGN: 0.9743069044675967 | Accuracy ATTACK: 0.9768346595932803 \n",
      "Results of ./models\\discr_model-lr=0.0002-batch=64-epochs=86.pth ...\n",
      "Number of total samples: 28307 | Number of correct BENIGN predictions: 22078 | Number of total BENIGN connections: 22652 | Number of correct ATTACK predictions: 5506 | Number of total ATTACK connections: 5655 | Accuracy BENIGN: 0.9746600741656366 | Accuracy ATTACK: 0.9736516357206012 \n",
      "Results of ./models\\discr_model-lr=0.0002-batch=64-epochs=87.pth ...\n",
      "Number of total samples: 28307 | Number of correct BENIGN predictions: 21720 | Number of total BENIGN connections: 22652 | Number of correct ATTACK predictions: 5569 | Number of total ATTACK connections: 5655 | Accuracy BENIGN: 0.9588557301783507 | Accuracy ATTACK: 0.9847922192749778 \n",
      "Results of ./models\\discr_model-lr=0.0002-batch=64-epochs=88.pth ...\n",
      "Number of total samples: 28307 | Number of correct BENIGN predictions: 22137 | Number of total BENIGN connections: 22652 | Number of correct ATTACK predictions: 5500 | Number of total ATTACK connections: 5655 | Accuracy BENIGN: 0.9772647006886809 | Accuracy ATTACK: 0.9725906277630415 \n",
      "Results of ./models\\discr_model-lr=0.0002-batch=64-epochs=89.pth ...\n",
      "Number of total samples: 28307 | Number of correct BENIGN predictions: 22065 | Number of total BENIGN connections: 22652 | Number of correct ATTACK predictions: 5501 | Number of total ATTACK connections: 5655 | Accuracy BENIGN: 0.9740861734063218 | Accuracy ATTACK: 0.9727674624226348 \n",
      "Results of ./models\\discr_model-lr=0.0002-batch=64-epochs=9.pth ...\n",
      "Number of total samples: 28307 | Number of correct BENIGN predictions: 22088 | Number of total BENIGN connections: 22652 | Number of correct ATTACK predictions: 4620 | Number of total ATTACK connections: 5655 | Accuracy BENIGN: 0.9751015362881865 | Accuracy ATTACK: 0.8169761273209549 \n",
      "Results of ./models\\discr_model-lr=0.0002-batch=64-epochs=90.pth ...\n",
      "Number of total samples: 28307 | Number of correct BENIGN predictions: 22072 | Number of total BENIGN connections: 22652 | Number of correct ATTACK predictions: 5533 | Number of total ATTACK connections: 5655 | Accuracy BENIGN: 0.9743951968921066 | Accuracy ATTACK: 0.9784261715296199 \n",
      "Results of ./models\\discr_model-lr=0.0002-batch=64-epochs=91.pth ...\n",
      "Number of total samples: 28307 | Number of correct BENIGN predictions: 22179 | Number of total BENIGN connections: 22652 | Number of correct ATTACK predictions: 5446 | Number of total ATTACK connections: 5655 | Accuracy BENIGN: 0.9791188416033905 | Accuracy ATTACK: 0.9630415561450044 \n",
      "Results of ./models\\discr_model-lr=0.0002-batch=64-epochs=92.pth ...\n",
      "Number of total samples: 28307 | Number of correct BENIGN predictions: 22205 | Number of total BENIGN connections: 22652 | Number of correct ATTACK predictions: 5295 | Number of total ATTACK connections: 5655 | Accuracy BENIGN: 0.9802666431220202 | Accuracy ATTACK: 0.9363395225464191 \n",
      "Results of ./models\\discr_model-lr=0.0002-batch=64-epochs=93.pth ...\n",
      "Number of total samples: 28307 | Number of correct BENIGN predictions: 22210 | Number of total BENIGN connections: 22652 | Number of correct ATTACK predictions: 5307 | Number of total ATTACK connections: 5655 | Accuracy BENIGN: 0.9804873741832951 | Accuracy ATTACK: 0.9384615384615385 \n",
      "Results of ./models\\discr_model-lr=0.0002-batch=64-epochs=94.pth ...\n",
      "Number of total samples: 28307 | Number of correct BENIGN predictions: 22070 | Number of total BENIGN connections: 22652 | Number of correct ATTACK predictions: 5527 | Number of total ATTACK connections: 5655 | Accuracy BENIGN: 0.9743069044675967 | Accuracy ATTACK: 0.9773651635720602 \n",
      "Results of ./models\\discr_model-lr=0.0002-batch=64-epochs=95.pth ...\n",
      "Number of total samples: 28307 | Number of correct BENIGN predictions: 22163 | Number of total BENIGN connections: 22652 | Number of correct ATTACK predictions: 5463 | Number of total ATTACK connections: 5655 | Accuracy BENIGN: 0.9784125022073106 | Accuracy ATTACK: 0.9660477453580902 \n",
      "Results of ./models\\discr_model-lr=0.0002-batch=64-epochs=96.pth ...\n",
      "Number of total samples: 28307 | Number of correct BENIGN predictions: 22171 | Number of total BENIGN connections: 22652 | Number of correct ATTACK predictions: 5490 | Number of total ATTACK connections: 5655 | Accuracy BENIGN: 0.9787656719053506 | Accuracy ATTACK: 0.9708222811671088 \n",
      "Results of ./models\\discr_model-lr=0.0002-batch=64-epochs=97.pth ...\n",
      "Number of total samples: 28307 | Number of correct BENIGN predictions: 21831 | Number of total BENIGN connections: 22652 | Number of correct ATTACK predictions: 5582 | Number of total ATTACK connections: 5655 | Accuracy BENIGN: 0.9637559597386545 | Accuracy ATTACK: 0.9870910698496905 \n",
      "Results of ./models\\discr_model-lr=0.0002-batch=64-epochs=98.pth ...\n",
      "Number of total samples: 28307 | Number of correct BENIGN predictions: 22247 | Number of total BENIGN connections: 22652 | Number of correct ATTACK predictions: 5285 | Number of total ATTACK connections: 5655 | Accuracy BENIGN: 0.9821207840367296 | Accuracy ATTACK: 0.9345711759504863 \n",
      "Results of ./models\\discr_model-lr=0.0002-batch=64-epochs=99.pth ...\n",
      "Number of total samples: 28307 | Number of correct BENIGN predictions: 22104 | Number of total BENIGN connections: 22652 | Number of correct ATTACK predictions: 5530 | Number of total ATTACK connections: 5655 | Accuracy BENIGN: 0.9758078756842663 | Accuracy ATTACK: 0.97789566755084 \n",
      "The best pair for BENIGN is {'./models\\\\discr_model-lr=0.0002-batch=64-epochs=65.pth': 0.9832244393431043}\n",
      "The best piar for ATTACK is {'./models\\\\discr_model-lr=0.0002-batch=64-epochs=97.pth': 0.9870910698496905}\n"
     ]
    }
   ],
   "source": [
    "num_samples = len(cicdataset_features)\n",
    "best_accuracy_normal = 0\n",
    "best_accuracy_attack = 0\n",
    "total_benign_conn = cicdataset_labels.value_counts().BENIGN\n",
    "total_attack_conn = cicdataset_labels.value_counts().ATTACK\n",
    "\n",
    "for PATH_discr in discr_models_lst:\n",
    "    discriminator.load_state_dict(torch.load(PATH_discr))\n",
    "    discriminator.eval()\n",
    "    correct_prediction_normal = 0\n",
    "    correct_prediction_attack = 0\n",
    "    for i in range(len(cicdataset_features)):\n",
    "        row_label = cicdataset_labels[i]\n",
    "        row_features = cicdataset_features[i]\n",
    "        row_features = torch.tensor(row_features).float()\n",
    "        model_output = discriminator(row_features)\n",
    "        if model_output < 0.5:\n",
    "            attack = True\n",
    "        else:\n",
    "            attack = False\n",
    "        if (row_label == 'BENIGN' and attack == False):\n",
    "            correct_prediction_normal += 1\n",
    "        if (row_label == 'ATTACK' and attack == True):\n",
    "            correct_prediction_attack += 1\n",
    "    current_accuracy_normal = correct_prediction_normal / total_benign_conn\n",
    "    current_accuracy_attack = correct_prediction_attack / total_attack_conn\n",
    "    output = (f'Number of total samples: {num_samples} | '\n",
    "              f'Number of correct BENIGN predictions: {correct_prediction_normal} | '\n",
    "              f'Number of total BENIGN connections: {total_benign_conn} | '\n",
    "              f'Number of correct ATTACK predictions: {correct_prediction_attack} | '\n",
    "              f'Number of total ATTACK connections: {total_attack_conn} | '\n",
    "              f'Accuracy BENIGN: {current_accuracy_normal} | '\n",
    "              f'Accuracy ATTACK: {current_accuracy_attack} ')\n",
    "    if current_accuracy_normal > best_accuracy_normal:\n",
    "        best_pair_normal  = {PATH_discr : current_accuracy_normal}\n",
    "        best_accuracy_normal = current_accuracy_normal\n",
    "    if current_accuracy_attack > best_accuracy_attack:\n",
    "        best_pair_attack = {PATH_discr : current_accuracy_attack}\n",
    "        best_accuracy_attack = current_accuracy_attack\n",
    "    print('Results of ' + str(PATH_discr) + ' ...')\n",
    "    print(output)\n",
    "    file_name = './test_eval/' + 'output-' + PATH_discr[9:-3] + 'txt'\n",
    "    file = open(file_name, 'w')\n",
    "    a = file.write(output)\n",
    "    file.close()\n",
    "\n",
    "print('The best pair for BENIGN is ' + str(best_pair_normal))\n",
    "print('The best piar for ATTACK is ' + str(best_pair_attack))"
   ]
  }
 ],
 "metadata": {
  "kernelspec": {
   "display_name": "Python 3 (ipykernel)",
   "language": "python",
   "name": "python3"
  },
  "language_info": {
   "codemirror_mode": {
    "name": "ipython",
    "version": 3
   },
   "file_extension": ".py",
   "mimetype": "text/x-python",
   "name": "python",
   "nbconvert_exporter": "python",
   "pygments_lexer": "ipython3",
   "version": "3.10.10"
  }
 },
 "nbformat": 4,
 "nbformat_minor": 5
}
